<mxfile host="65bd71144e">
    <diagram id="Cjpkh4OWOJz720145XT9" name="Page-1">
        <mxGraphModel dx="1661" dy="422" grid="1" gridSize="10" guides="1" tooltips="1" connect="1" arrows="1" fold="1" page="1" pageScale="1" pageWidth="827" pageHeight="1169" math="0" shadow="0">
            <root>
                <mxCell id="0"/>
                <mxCell id="1" parent="0"/>
                <mxCell id="6" style="edgeStyle=none;html=1;entryX=0.5;entryY=0;entryDx=0;entryDy=0;rounded=0;" edge="1" parent="1" source="2" target="3">
                    <mxGeometry relative="1" as="geometry"/>
                </mxCell>
                <mxCell id="2" value="Factorials" style="rounded=0;whiteSpace=wrap;html=1;" vertex="1" parent="1">
                    <mxGeometry x="240" y="60" width="120" height="60" as="geometry"/>
                </mxCell>
                <mxCell id="12" style="edgeStyle=none;rounded=0;html=1;entryX=0.5;entryY=0;entryDx=0;entryDy=0;" edge="1" parent="1" source="3" target="10">
                    <mxGeometry relative="1" as="geometry">
                        <Array as="points">
                            <mxPoint x="300" y="300"/>
                            <mxPoint x="220" y="300"/>
                        </Array>
                    </mxGeometry>
                </mxCell>
                <mxCell id="13" style="edgeStyle=none;rounded=0;html=1;entryX=0.5;entryY=0;entryDx=0;entryDy=0;" edge="1" parent="1" source="3" target="11">
                    <mxGeometry relative="1" as="geometry">
                        <Array as="points">
                            <mxPoint x="300" y="300"/>
                            <mxPoint x="380" y="300"/>
                        </Array>
                    </mxGeometry>
                </mxCell>
                <mxCell id="3" value="Process" style="rounded=0;whiteSpace=wrap;html=1;" vertex="1" parent="1">
                    <mxGeometry x="240" y="200" width="120" height="60" as="geometry"/>
                </mxCell>
                <mxCell id="7" style="edgeStyle=none;rounded=0;html=1;entryX=0.5;entryY=0;entryDx=0;entryDy=0;exitX=0.5;exitY=0;exitDx=0;exitDy=0;" edge="1" parent="1" source="4" target="5">
                    <mxGeometry relative="1" as="geometry">
                        <Array as="points">
                            <mxPoint x="30" y="160"/>
                            <mxPoint x="570" y="160"/>
                        </Array>
                    </mxGeometry>
                </mxCell>
                <mxCell id="16" style="edgeStyle=none;rounded=0;html=1;entryX=0.5;entryY=0;entryDx=0;entryDy=0;" edge="1" parent="1" source="4" target="9">
                    <mxGeometry relative="1" as="geometry"/>
                </mxCell>
                <mxCell id="4" value="Input" style="rounded=0;whiteSpace=wrap;html=1;" vertex="1" parent="1">
                    <mxGeometry x="-30" y="200" width="120" height="60" as="geometry"/>
                </mxCell>
                <mxCell id="8" style="edgeStyle=none;rounded=0;html=1;entryX=0.5;entryY=0;entryDx=0;entryDy=0;" edge="1" parent="1" source="5" target="4">
                    <mxGeometry relative="1" as="geometry">
                        <mxPoint x="100" y="200" as="targetPoint"/>
                        <Array as="points">
                            <mxPoint x="570" y="160"/>
                            <mxPoint x="30" y="160"/>
                        </Array>
                    </mxGeometry>
                </mxCell>
                <mxCell id="15" style="edgeStyle=none;rounded=0;html=1;entryX=0.5;entryY=0;entryDx=0;entryDy=0;" edge="1" parent="1" source="5" target="14">
                    <mxGeometry relative="1" as="geometry"/>
                </mxCell>
                <mxCell id="5" value="Output" style="rounded=0;whiteSpace=wrap;html=1;" vertex="1" parent="1">
                    <mxGeometry x="510" y="200" width="120" height="60" as="geometry"/>
                </mxCell>
                <mxCell id="9" value="User enters int_integer" style="rounded=0;whiteSpace=wrap;html=1;" vertex="1" parent="1">
                    <mxGeometry x="-30" y="330" width="120" height="60" as="geometry"/>
                </mxCell>
                <mxCell id="10" value="Check if input is an integer" style="rounded=0;whiteSpace=wrap;html=1;" vertex="1" parent="1">
                    <mxGeometry x="160" y="330" width="120" height="60" as="geometry"/>
                </mxCell>
                <mxCell id="11" value="Check if int_integer is equal to loop_counter" style="rounded=0;whiteSpace=wrap;html=1;" vertex="1" parent="1">
                    <mxGeometry x="320" y="330" width="120" height="60" as="geometry"/>
                </mxCell>
                <mxCell id="14" value="Show factorial of int_integer" style="rounded=0;whiteSpace=wrap;html=1;" vertex="1" parent="1">
                    <mxGeometry x="510" y="330" width="120" height="60" as="geometry"/>
                </mxCell>
            </root>
        </mxGraphModel>
    </diagram>
</mxfile>